<svg width="18" height="18" viewBox="0 0 18 18" fill="none" xmlns="http://www.w3.org/2000/svg">
<path d="M9 1.5L4.875 8.25H13.125L9 1.5ZM9 4.38L10.4475 6.75H7.545L9 4.38ZM13.125 9.75C11.2575 9.75 9.75 11.2575 9.75 13.125C9.75 14.9925 11.2575 16.5 13.125 16.5C14.9925 16.5 16.5 14.9925 16.5 13.125C16.5 11.2575 14.9925 9.75 13.125 9.75ZM13.125 15C12.09 15 11.25 14.16 11.25 13.125C11.25 12.09 12.09 11.25 13.125 11.25C14.16 11.25 15 12.09 15 13.125C15 14.16 14.16 15 13.125 15ZM2.25 16.125H8.25V10.125H2.25V16.125ZM3.75 11.625H6.75V14.625H3.75V11.625Z" fill="#333333"/>
</svg>
