<svg width="746" height="409" viewBox="0 0 746 409" fill="none" xmlns="http://www.w3.org/2000/svg">
<path d="M0.776001 147V6.84H33.608C42.312 6.84 49.992 8.568 56.648 12.024C63.304 15.48 68.424 20.408 72.008 26.808C75.592 33.208 77.384 40.632 77.384 49.08V104.76C77.384 113.208 75.592 120.632 72.008 127.032C68.424 133.432 63.304 138.36 56.648 141.816C49.992 145.272 42.312 147 33.608 147H0.776001ZM33.608 135.672C43.08 135.672 50.632 132.92 56.264 127.416C61.896 121.784 64.712 114.232 64.712 104.76V49.08C64.712 39.736 61.896 32.248 56.264 26.616C50.632 20.984 43.08 18.168 33.608 18.168H13.448V135.672H33.608ZM153.725 148.92C141.949 148.92 132.541 145.4 125.501 138.36C118.461 131.32 114.941 121.784 114.941 109.752V78.648C114.941 66.616 118.461 57.08 125.501 50.04C132.541 43 141.949 39.48 153.725 39.48C165.501 39.48 174.909 43 181.949 50.04C188.989 57.08 192.509 66.616 192.509 78.648V109.752C192.509 121.784 188.989 131.32 181.949 138.36C174.909 145.4 165.501 148.92 153.725 148.92ZM153.725 137.784C162.045 137.784 168.445 135.352 172.925 130.488C177.533 125.624 179.837 118.712 179.837 109.752V78.648C179.837 69.688 177.533 62.776 172.925 57.912C168.445 53.048 162.045 50.616 153.725 50.616C145.405 50.616 138.941 53.048 134.333 57.912C129.853 62.776 127.613 69.688 127.613 78.648V109.752C127.613 118.712 129.853 125.624 134.333 130.488C138.941 135.352 145.405 137.784 153.725 137.784ZM385.127 22.584C381.799 22.584 379.047 21.624 376.871 19.704C374.823 17.656 373.799 14.968 373.799 11.64C373.799 8.43999 374.823 5.81599 376.871 3.76799C379.047 1.71999 381.799 0.695995 385.127 0.695995H387.239C390.567 0.695995 393.255 1.71999 395.303 3.76799C397.479 5.81599 398.567 8.43999 398.567 11.64C398.567 14.968 397.479 17.656 395.303 19.704C393.255 21.624 390.567 22.584 387.239 22.584H385.127ZM430.247 147H343.463V135.48H381.671V52.92H348.263V41.4H394.343V135.48H430.247V147ZM510.62 147C502.172 147 495.644 144.824 491.036 140.472C486.428 135.992 484.124 129.656 484.124 121.464V52.92H453.788V41.4H484.124V12.6H496.796V41.4H539.612V52.92H496.796V121.464C496.796 130.808 501.404 135.48 510.62 135.48H537.692V147H510.62ZM618.449 106.872H610.001L606.545 34.488V6.84H621.905V34.488L618.449 106.872ZM613.265 147.96C610.065 147.96 607.441 146.936 605.393 144.888C603.345 142.84 602.321 140.216 602.321 137.016C602.321 133.688 603.345 131.064 605.393 129.144C607.441 127.096 610.065 126.072 613.265 126.072H616.145C619.473 126.072 622.097 127.096 624.017 129.144C626.065 131.064 627.089 133.688 627.089 137.016C627.089 140.216 626.065 142.84 624.017 144.888C621.969 146.936 619.345 147.96 616.145 147.96H613.265ZM74.12 409C56.328 404.52 42.632 395.944 33.032 383.272C23.56 370.6 18.824 354.6 18.824 335.272V296.488C18.824 277.288 23.624 261.352 33.224 248.68C42.824 235.88 56.456 227.24 74.12 222.76V235.048C60.808 238.376 50.44 245.416 43.016 256.168C35.72 266.92 32.072 280.36 32.072 296.488V335.272C32.072 351.144 35.784 364.52 43.208 375.4C50.632 386.152 60.936 393.128 74.12 396.328V409ZM113.789 319.72L147.773 244.84H160.445L193.661 319.72H180.797L159.485 269.992C158.333 267.176 157.181 264.232 156.029 261.16C155.005 258.088 154.365 256.296 154.109 255.784C152.317 261.032 150.525 265.768 148.733 269.992L126.653 319.72H113.789ZM314.93 400.744H222.77V389.8H314.93V400.744ZM424.103 327.208H343.847V315.88H424.103V327.208ZM463.58 396.328C476.764 393.128 487.068 386.152 494.492 375.4C501.916 364.52 505.628 351.144 505.628 335.272V296.488C505.628 280.36 501.916 266.92 494.492 256.168C487.196 245.416 476.892 238.376 463.58 235.048V222.76C481.244 227.24 494.876 235.88 504.476 248.68C514.076 261.352 518.876 277.288 518.876 296.488V335.272C518.876 354.728 514.14 370.792 504.668 383.464C495.196 396.136 481.5 404.648 463.58 409V396.328ZM597.713 394.216L620.177 327.784L566.417 292.072H631.889L655.889 220.648L679.889 292.072H745.361L691.601 327.784L713.681 394.216L655.889 351.592L597.713 394.216ZM618.833 365.224L655.889 337.192L692.945 365.224L677.777 323.368L711.569 301.48H671.057L655.889 255.208L640.529 301.48H599.825L634.001 323.368L618.833 365.224Z" fill="#C6F68D"/>
</svg>
