<svg width="788" height="403" viewBox="0 0 788 403" fill="none" xmlns="http://www.w3.org/2000/svg">
<path d="M13.448 141H0.776001V0.839996H13.448V62.664H63.752V0.839996H76.424V141H63.752V74.184H13.448V141ZM192.509 91.08H127.421V103.752C127.421 112.712 129.725 119.688 134.333 124.68C138.941 129.544 145.469 131.976 153.917 131.976C160.701 131.976 166.269 130.504 170.621 127.56C175.101 124.488 178.045 120.2 179.453 114.696H192.125C190.589 123.4 186.429 130.312 179.645 135.432C172.861 140.424 164.285 142.92 153.917 142.92C141.885 142.92 132.349 139.4 125.309 132.36C118.397 125.192 114.941 115.656 114.941 103.752V72.648C114.941 60.744 118.397 51.272 125.309 44.232C132.349 37.064 141.885 33.48 153.917 33.48C165.821 33.48 175.229 37.064 182.141 44.232C189.053 51.272 192.509 60.744 192.509 72.648V91.08ZM127.421 80.904H180.029V72.648C180.029 63.688 177.789 56.712 173.309 51.72C168.829 46.728 162.365 44.232 153.917 44.232C145.341 44.232 138.749 46.728 134.141 51.72C129.661 56.712 127.421 63.688 127.421 72.648V80.904ZM281.33 141C272.37 141 265.394 138.568 260.402 133.704C255.41 128.84 252.914 122.12 252.914 113.544V12.36H220.082V0.839996H265.586V113.544C265.586 118.664 266.93 122.632 269.618 125.448C272.306 128.136 276.21 129.48 281.33 129.48H315.698V141H281.33ZM396.455 141C387.495 141 380.519 138.568 375.527 133.704C370.535 128.84 368.039 122.12 368.039 113.544V12.36H335.207V0.839996H380.711V113.544C380.711 118.664 382.055 122.632 384.743 125.448C387.431 128.136 391.335 129.48 396.455 129.48H430.823V141H396.455ZM499.1 142.92C487.324 142.92 477.916 139.4 470.876 132.36C463.836 125.32 460.316 115.784 460.316 103.752V72.648C460.316 60.616 463.836 51.08 470.876 44.04C477.916 37 487.324 33.48 499.1 33.48C510.876 33.48 520.284 37 527.324 44.04C534.364 51.08 537.884 60.616 537.884 72.648V103.752C537.884 115.784 534.364 125.32 527.324 132.36C520.284 139.4 510.876 142.92 499.1 142.92ZM499.1 131.784C507.42 131.784 513.82 129.352 518.3 124.488C522.908 119.624 525.212 112.712 525.212 103.752V72.648C525.212 63.688 522.908 56.776 518.3 51.912C513.82 47.048 507.42 44.616 499.1 44.616C490.78 44.616 484.316 47.048 479.708 51.912C475.228 56.776 472.988 63.688 472.988 72.648V103.752C472.988 112.712 475.228 119.624 479.708 124.488C484.316 129.352 490.78 131.784 499.1 131.784ZM618.449 100.872H610.001L606.545 28.488V0.839996H621.905V28.488L618.449 100.872ZM613.265 141.96C610.065 141.96 607.441 140.936 605.393 138.888C603.345 136.84 602.321 134.216 602.321 131.016C602.321 127.688 603.345 125.064 605.393 123.144C607.441 121.096 610.065 120.072 613.265 120.072H616.145C619.473 120.072 622.097 121.096 624.017 123.144C626.065 125.064 627.089 127.688 627.089 131.016C627.089 134.216 626.065 136.84 624.017 138.888C621.969 140.936 619.345 141.96 616.145 141.96H613.265ZM74.12 403C56.328 398.52 42.632 389.944 33.032 377.272C23.56 364.6 18.824 348.6 18.824 329.272V290.488C18.824 271.288 23.624 255.352 33.224 242.68C42.824 229.88 56.456 221.24 74.12 216.76V229.048C60.808 232.376 50.44 239.416 43.016 250.168C35.72 260.92 32.072 274.36 32.072 290.488V329.272C32.072 345.144 35.784 358.52 43.208 369.4C50.632 380.152 60.936 387.128 74.12 390.328V403ZM113.789 313.72L147.773 238.84H160.445L193.661 313.72H180.797L159.485 263.992C158.333 261.176 157.181 258.232 156.029 255.16C155.005 252.088 154.365 250.296 154.109 249.784C152.317 255.032 150.525 259.768 148.733 263.992L126.653 313.72H113.789ZM307.25 381.304C337.97 381.304 359.282 356.152 359.282 307.96C359.282 259.768 337.97 235.768 307.25 235.768C276.53 235.768 255.218 259.768 255.218 307.96C255.218 356.152 276.53 381.304 307.25 381.304ZM307.25 367.096C287.09 367.096 272.498 349.624 272.498 307.96C272.498 266.104 287.09 249.976 307.25 249.976C327.41 249.976 342.002 266.104 342.002 307.96C342.002 349.624 327.41 367.096 307.25 367.096ZM420.914 313.72L454.898 238.84H467.57L500.786 313.72H487.922L466.61 263.992C465.458 261.176 464.306 258.232 463.154 255.16C462.13 252.088 461.49 250.296 461.234 249.784C459.442 255.032 457.65 259.768 455.858 263.992L433.778 313.72H420.914ZM540.455 390.328C553.639 387.128 563.943 380.152 571.367 369.4C578.791 358.52 582.503 345.144 582.503 329.272V290.488C582.503 274.36 578.791 260.92 571.367 250.168C564.071 239.416 553.767 232.376 540.455 229.048V216.76C558.119 221.24 571.751 229.88 581.351 242.68C590.951 255.352 595.751 271.288 595.751 290.488V329.272C595.751 348.728 591.015 364.792 581.543 377.464C572.071 390.136 558.375 398.648 540.455 403V390.328ZM787.484 240.952L769.244 235.96C763.676 263.608 750.812 295.096 732.956 317.368C715.484 339.064 688.988 358.264 660.38 368.248L673.82 382.264C701.276 370.936 728.732 349.624 746.204 327.544C762.332 306.808 773.852 278.584 781.34 257.656C782.876 252.856 785.18 245.944 787.484 240.952Z" fill="#C6F68D"/>
</svg>
