<svg width="786" height="411" viewBox="0 0 786 411" fill="none" xmlns="http://www.w3.org/2000/svg">
<path d="M72.312 149H0.888001V137.672H30.264V20.168H0.888001V8.648H72.312V20.168H43.128V137.672H72.312V149ZM163.245 149C154.797 149 148.269 146.824 143.661 142.472C139.053 137.992 136.749 131.656 136.749 123.464V54.92H106.413V43.4H136.749V14.6H149.421V43.4H192.237V54.92H149.421V123.464C149.421 132.808 154.029 137.48 163.245 137.48H190.317V149H163.245ZM253.602 59.72H242.85L257.634 0.00799561H277.986L253.602 59.72ZM376.983 150.92C366.999 150.92 358.807 148.36 352.407 143.24C346.135 138.12 342.551 131.4 341.655 123.08H354.327C355.223 127.944 357.719 131.912 361.815 134.984C365.911 138.056 370.967 139.592 376.983 139.592H387.927C394.711 139.592 400.023 137.928 403.863 134.6C407.831 131.272 409.815 126.856 409.815 121.352C409.815 116.232 408.215 112.008 405.015 108.68C401.815 105.352 397.399 103.24 391.767 102.344L373.719 99.656C354.135 96.712 344.343 87.048 344.343 70.664C344.343 61.576 347.351 54.472 353.367 49.352C359.511 44.104 368.023 41.48 378.903 41.48H386.583C396.311 41.48 404.247 43.848 410.391 48.584C416.535 53.32 420.119 59.72 421.143 67.784H408.471C407.703 63.304 405.335 59.72 401.367 57.032C397.527 54.216 392.599 52.808 386.583 52.808H378.903C371.991 52.808 366.615 54.408 362.775 57.608C359.063 60.68 357.207 65.032 357.207 70.664C357.207 75.528 358.743 79.368 361.815 82.184C364.887 84.872 369.495 86.728 375.639 87.752L393.303 90.248C402.775 91.656 409.943 94.92 414.807 100.04C419.799 105.16 422.295 111.88 422.295 120.2C422.295 129.672 419.287 137.16 413.271 142.664C407.255 148.168 398.807 150.92 387.927 150.92H376.983ZM612.225 150.92C600.449 150.92 591.041 147.4 584.001 140.36C576.961 133.32 573.441 123.784 573.441 111.752V46.088C573.441 34.056 576.961 24.52 584.001 17.48C591.041 10.44 600.449 6.92 612.225 6.92C624.001 6.92 633.409 10.44 640.449 17.48C647.489 24.52 651.009 34.056 651.009 46.088V111.752C651.009 123.784 647.489 133.32 640.449 140.36C633.409 147.4 624.001 150.92 612.225 150.92ZM612.225 139.784C620.545 139.784 626.945 137.352 631.425 132.488C636.033 127.624 638.337 120.712 638.337 111.752V46.088C638.337 37.128 636.033 30.216 631.425 25.352C626.945 20.488 620.545 18.056 612.225 18.056C603.905 18.056 597.441 20.488 592.833 25.352C588.353 30.216 586.113 37.128 586.113 46.088V111.752C586.113 120.712 588.353 127.624 592.833 132.488C597.441 137.352 603.905 139.784 612.225 139.784ZM702.198 149H689.526V8.648H702.198V70.856H728.118L759.222 8.648H773.046L739.254 76.04L774.966 149H760.182L727.734 81.992H702.198V149ZM72.12 411C54.328 406.52 40.632 397.944 31.032 385.272C21.56 372.6 16.824 356.6 16.824 337.272V298.488C16.824 279.288 21.624 263.352 31.224 250.68C40.824 237.88 54.456 229.24 72.12 224.76V237.048C58.808 240.376 48.44 247.416 41.016 258.168C33.72 268.92 30.072 282.36 30.072 298.488V337.272C30.072 353.144 33.784 366.52 41.208 377.4C48.632 388.152 58.936 395.128 72.12 398.328V411ZM248.109 248.952L229.869 243.96C224.301 271.608 211.437 303.096 193.581 325.368C176.109 347.064 149.613 366.264 121.005 376.248L134.445 390.264C161.901 378.936 189.357 357.624 206.829 335.544C222.957 314.808 234.477 286.584 241.965 265.656C243.501 260.856 245.805 253.944 248.109 248.952ZM389.805 402.744H297.645V391.8H389.805V402.744ZM499.554 372.792L418.146 330.168V317.112L499.554 274.488V287.352L442.146 316.728L428.13 323.448C433.25 325.624 437.922 327.8 442.146 329.976L499.554 359.736V372.792ZM568.791 397.752L581.847 386.616C569.943 372.6 552.663 355.128 538.839 343.992L526.359 354.936C539.991 366.072 556.503 382.584 568.791 397.752ZM730.455 398.328C743.639 395.128 753.943 388.152 761.367 377.4C768.791 366.52 772.503 353.144 772.503 337.272V298.488C772.503 282.36 768.791 268.92 761.367 258.168C754.071 247.416 743.767 240.376 730.455 237.048V224.76C748.119 229.24 761.751 237.88 771.351 250.68C780.951 263.352 785.751 279.288 785.751 298.488V337.272C785.751 356.728 781.015 372.792 771.543 385.464C762.071 398.136 748.375 406.648 730.455 411V398.328Z" fill="#C6F68D"/>
</svg>
