<svg width="101" height="32" viewBox="0 0 101 32" fill="none" xmlns="http://www.w3.org/2000/svg">
<rect width="45" height="32" fill="#6D1EFF" fill-opacity="0.1"/>
<path d="M6.888 24.24C6.296 24.24 5.8 24.04 5.4 23.64C5 23.224 4.8 22.712 4.8 22.104C4.8 21.496 5 20.992 5.4 20.592C5.8 20.176 6.296 19.968 6.888 19.968H7.512C8.104 19.968 8.6 20.176 9 20.592C9.4 20.992 9.6 21.496 9.6 22.104C9.6 22.712 9.4 23.224 9 23.64C8.6 24.04 8.104 24.24 7.512 24.24H6.888ZM21.8066 8.808C21.2946 8.808 20.8786 8.664 20.5586 8.376C20.2546 8.088 20.1026 7.704 20.1026 7.224C20.1026 6.76 20.2546 6.384 20.5586 6.096C20.8786 5.792 21.2946 5.64 21.8066 5.64H22.2866C22.7826 5.64 23.1906 5.792 23.5106 6.096C23.8306 6.384 23.9906 6.76 23.9906 7.224C23.9906 7.704 23.8306 8.088 23.5106 8.376C23.1906 8.664 22.7746 8.808 22.2626 8.808H21.8066ZM27.7346 24H16.1666V21.264H20.7746V13.512H16.7666V10.8H23.6306V21.264H27.7346V24ZM37.4213 24C36.1573 24 35.1653 23.656 34.4453 22.968C33.7413 22.264 33.3893 21.288 33.3893 20.04V13.512H29.8133V10.8H33.3893V7.2H36.4133V10.8H41.4773V13.512H36.4133V20.04C36.4133 20.872 36.8213 21.288 37.6373 21.288H41.2373V24H37.4213Z" fill="#6D1EFF"/>
<path d="M50.4919 10.56C52.1559 10.56 53.4519 10.952 54.3799 11.736C55.3079 12.52 55.7719 13.624 55.7719 15.048V24H52.8679V21.696H52.8199C52.6599 22.48 52.2199 23.104 51.4999 23.568C50.7959 24.016 49.9159 24.24 48.8599 24.24C47.5319 24.24 46.4759 23.888 45.6919 23.184C44.9079 22.464 44.5159 21.496 44.5159 20.28C44.5159 18.968 44.9479 17.96 45.8119 17.256C46.6759 16.536 47.8999 16.176 49.4839 16.176H52.7719V15.072C52.7719 14.416 52.5719 13.912 52.1719 13.56C51.7719 13.208 51.1959 13.032 50.4439 13.032C49.7719 13.032 49.2199 13.176 48.7879 13.464C48.3719 13.736 48.1239 14.128 48.0439 14.64H45.1159C45.2599 13.392 45.8119 12.4 46.7719 11.664C47.7479 10.928 48.9879 10.56 50.4919 10.56ZM49.8679 21.984C50.7479 21.984 51.4519 21.776 51.9799 21.36C52.5079 20.944 52.7719 20.376 52.7719 19.656V18.048H49.5319C48.9239 18.048 48.4359 18.224 48.0679 18.576C47.6999 18.928 47.5159 19.4 47.5159 19.992C47.5159 20.6 47.7239 21.088 48.1399 21.456C48.5559 21.808 49.1319 21.984 49.8679 21.984ZM66.6825 24C65.3705 24 64.3145 23.608 63.5145 22.824C62.7305 22.04 62.3385 21.008 62.3385 19.728V9.192H58.3065V6.48H65.3385V19.728C65.3385 20.192 65.4745 20.568 65.7465 20.856C66.0345 21.144 66.4105 21.288 66.8745 21.288H70.9785V24H66.6825ZM76.8731 24H73.8731V6.48H76.8731V15.984H78.8651L82.0811 10.8H85.4411L81.4571 17.184L85.5131 24H82.0811L78.8651 18.528H76.8731V24ZM92.9918 24.24C91.4878 24.24 90.2718 23.896 89.3438 23.208C88.4318 22.504 87.9518 21.568 87.9038 20.4H90.9038C90.9358 20.816 91.1358 21.152 91.5038 21.408C91.8878 21.664 92.3838 21.792 92.9918 21.792H94.0478C94.7678 21.792 95.3118 21.648 95.6798 21.36C96.0638 21.072 96.2558 20.68 96.2558 20.184C96.2558 19.736 96.0878 19.384 95.7518 19.128C95.4158 18.856 94.9118 18.672 94.2398 18.576L92.6078 18.336C91.0878 18.128 89.9758 17.728 89.2718 17.136C88.5838 16.528 88.2398 15.64 88.2398 14.472C88.2398 13.224 88.6558 12.264 89.4878 11.592C90.3358 10.904 91.5598 10.56 93.1598 10.56H94.0718C95.5278 10.56 96.6958 10.896 97.5758 11.568C98.4558 12.224 98.9358 13.104 99.0157 14.208H96.0158C95.9678 13.84 95.7678 13.552 95.4158 13.344C95.0798 13.12 94.6318 13.008 94.0718 13.008H93.1598C92.4718 13.008 91.9678 13.128 91.6478 13.368C91.3278 13.608 91.1678 13.976 91.1678 14.472C91.1678 14.904 91.3038 15.24 91.5758 15.48C91.8478 15.704 92.2958 15.856 92.9198 15.936L94.6238 16.176C96.2078 16.4 97.3598 16.824 98.0798 17.448C98.8158 18.072 99.1838 18.976 99.1838 20.16C99.1838 21.472 98.7438 22.48 97.8638 23.184C96.9998 23.888 95.7278 24.24 94.0478 24.24H92.9918Z" fill="black"/>
</svg>
