<svg width="18" height="18" viewBox="0 0 18 18" fill="none" xmlns="http://www.w3.org/2000/svg">
<path d="M14.3548 9.70529C14.3848 9.48029 14.3998 9.24779 14.3998 9.00029C14.3998 8.76029 14.3848 8.52029 14.3473 8.29529L15.8698 7.11029C16.0048 7.00529 16.0423 6.80279 15.9598 6.65279L14.5198 4.16279C14.4298 3.99779 14.2423 3.94529 14.0773 3.99779L12.2848 4.71779C11.9098 4.43279 11.5123 4.19279 11.0698 4.01279L10.7998 2.10779C10.7698 1.92779 10.6198 1.80029 10.4398 1.80029H7.55984C7.37984 1.80029 7.23734 1.92779 7.20734 2.10779L6.93734 4.01279C6.49484 4.19279 6.08984 4.44029 5.72234 4.71779L3.92984 3.99779C3.76484 3.93779 3.57734 3.99779 3.48734 4.16279L2.05484 6.65279C1.96484 6.81029 1.99484 7.00529 2.14484 7.11029L3.66734 8.29529C3.62984 8.52029 3.59984 8.76779 3.59984 9.00029C3.59984 9.23279 3.61484 9.48029 3.65234 9.70529L2.12984 10.8903C1.99484 10.9953 1.95734 11.1978 2.03984 11.3478L3.47984 13.8378C3.56984 14.0028 3.75734 14.0553 3.92234 14.0028L5.71484 13.2828C6.08984 13.5678 6.48734 13.8078 6.92984 13.9878L7.19984 15.8928C7.23734 16.0728 7.37984 16.2003 7.55984 16.2003H10.4398C10.6198 16.2003 10.7698 16.0728 10.7923 15.8928L11.0623 13.9878C11.5048 13.8078 11.9098 13.5678 12.2773 13.2828L14.0698 14.0028C14.2348 14.0628 14.4223 14.0028 14.5123 13.8378L15.9523 11.3478C16.0423 11.1828 16.0048 10.9953 15.8623 10.8903L14.3548 9.70529ZM8.99984 11.7003C7.51484 11.7003 6.29984 10.4853 6.29984 9.00029C6.29984 7.51529 7.51484 6.30029 8.99984 6.30029C10.4848 6.30029 11.6998 7.51529 11.6998 9.00029C11.6998 10.4853 10.4848 11.7003 8.99984 11.7003Z" fill="black"/>
</svg>
